<svg width="25" height="24" viewBox="0 0 25 24" fill="none" xmlns="http://www.w3.org/2000/svg">
<path fill-rule="evenodd" clip-rule="evenodd" d="M4.84806 0.050087C4.70913 0.0742411 4.43972 0.119906 4.24931 0.151637C2.96139 0.366176 1.83886 1.58187 1.58243 3.03976C1.53504 3.30907 1.51145 3.53398 1.38722 4.90192C1.35928 5.20956 1.31397 5.6901 1.28649 5.96978C1.259 6.24946 1.21354 6.73 1.18545 7.03765C1.15736 7.3453 1.11189 7.82584 1.08441 8.10552C1.05693 8.3852 1.01146 8.86574 0.983374 9.17339C0.955285 9.48103 0.909819 9.96157 0.882336 10.2413C0.854854 10.5209 0.809387 11.0015 0.781299 11.3091C0.729669 11.8745 0.681019 12.3751 0.578769 13.394C0.547852 13.7017 0.502334 14.1822 0.47753 14.4619C0.396498 15.376 0.326933 16.1308 0.276111 16.6485C0.248629 16.9281 0.202303 17.4201 0.173104 17.7417C0.143904 18.0634 0.0977809 18.5325 0.0706524 18.7842C-0.263529 21.882 0.579476 23.4815 2.77679 23.9188C3.43237 24.0492 22.0364 24.0125 22.4791 23.8799C24.565 23.255 25.2302 21.8598 24.9326 18.7333C24.906 18.4537 24.8603 17.9617 24.831 17.64C24.7817 17.0988 24.7558 16.8311 24.6241 15.5043C24.5978 15.2386 24.5532 14.7695 24.5251 14.4619C24.497 14.1542 24.4516 13.6737 24.4241 13.394C24.3966 13.1143 24.3511 12.6338 24.323 12.3261C24.2949 12.0185 24.2495 11.5379 24.222 11.2583C24.1945 10.9786 24.149 10.498 24.121 10.1904C24.0929 9.88276 24.0474 9.40222 24.0199 9.12253C23.9924 8.84286 23.947 8.36232 23.9189 8.05467C23.8908 7.74702 23.8453 7.26648 23.8178 6.9868C23.7904 6.70712 23.7449 6.22658 23.7168 5.91893C23.6887 5.61129 23.6433 5.13074 23.6159 4.85107C23.5886 4.57139 23.5444 4.0794 23.5178 3.75777C23.3827 2.12612 22.7356 1.03268 21.5521 0.43635C21.1099 0.213522 21.0086 0.187383 20.0445 0.0475435C19.5966 -0.0174438 5.22281 -0.0150529 4.84806 0.050087ZM20.3985 2.2115C20.7005 2.31503 21.1005 2.67674 21.2447 2.97645C21.3707 3.23848 21.4116 3.54008 21.5953 5.56298C21.6233 5.87062 21.6686 6.35117 21.6961 6.63084C21.7235 6.91052 21.769 7.39106 21.7971 7.69871C21.8252 8.00636 21.8707 8.4869 21.8981 8.76658C21.9256 9.04626 21.9711 9.5268 21.9992 9.83445C22.0273 10.1421 22.0727 10.6226 22.1002 10.9023C22.1277 11.182 22.1732 11.6625 22.2012 11.9702C22.2293 12.2778 22.2748 12.7584 22.3023 13.038C22.3298 13.3177 22.3752 13.7983 22.4033 14.1059C22.4314 14.4136 22.4769 14.8941 22.5044 15.1738C22.5318 15.4535 22.5773 15.934 22.6054 16.2416C22.6335 16.5493 22.6791 17.0298 22.7067 17.3095C22.7343 17.5892 22.7783 18.0583 22.8045 18.352C22.8307 18.6456 22.8803 19.149 22.9146 19.4707C23.0799 21.0167 22.8485 21.5713 21.9234 21.8466C21.4926 21.9748 3.92655 22.014 3.32017 21.8882C2.43852 21.7051 1.92009 21.0806 2.01421 20.3151C2.03179 20.1723 2.06857 19.8038 2.096 19.4961C2.12343 19.1885 2.16834 18.7079 2.19582 18.4282C2.22331 18.1486 2.26877 17.668 2.29686 17.3604C2.32495 17.0527 2.37042 16.5722 2.3979 16.2925C2.44872 15.7748 2.51828 15.02 2.59932 14.1059C2.62412 13.8262 2.66964 13.3457 2.70056 13.038C2.84499 11.5989 2.84428 11.6062 3.0023 9.85987C3.0314 9.53824 3.07768 9.04626 3.10516 8.76658C3.13264 8.4869 3.17811 8.00636 3.2062 7.69871C3.23429 7.39106 3.27975 6.91052 3.30724 6.63084C3.33472 6.35117 3.38003 5.87062 3.40797 5.56298C3.59171 3.54008 3.63258 3.23848 3.75862 2.97645C3.8977 2.68726 4.30013 2.31585 4.5841 2.21465C4.91894 2.09531 20.051 2.09231 20.3985 2.2115ZM7.9297 4.8709C7.36485 5.13329 7.34874 5.20814 7.34874 7.56665C7.34874 9.66562 7.36647 9.87299 7.60658 10.5789C9.32331 15.6261 16.486 15.1398 17.5807 9.90172C17.6918 9.36962 17.6884 5.66651 17.5764 5.3968C17.2333 4.57037 16.055 4.57037 15.712 5.3968C15.6467 5.55408 15.6338 5.86595 15.6338 7.28697C15.6338 10.7806 14.4471 12.3886 12.1429 12.0173C10.0251 11.6759 9.3705 10.5572 9.36837 7.27589C9.36736 5.71934 9.35878 5.54442 9.274 5.35957C9.04127 4.85203 8.44045 4.63363 7.9297 4.8709Z" fill="white"/>
</svg>
