<svg width="21" height="20" viewBox="0 0 21 20" fill="none" xmlns="http://www.w3.org/2000/svg">
<path d="M18.0905 11.4755C19.6431 11.4755 20.9064 12.684 20.9064 14.1694L20.9064 17.3061C20.9064 18.7915 19.6431 19.9999 18.0904 19.9999C16.5377 19.9999 15.2745 18.7915 15.2745 17.3061L15.2745 14.1694C15.2745 12.684 16.5377 11.4755 18.0905 11.4755ZM16.9078 17.3061C16.9078 17.9299 17.4383 18.4374 18.0904 18.4374C18.7425 18.4374 19.2731 17.9299 19.2731 17.3061L19.2731 14.1694C19.2731 13.5455 18.7425 13.038 18.0904 13.038C17.4383 13.038 16.9078 13.5456 16.9078 14.1694L16.9078 17.3061Z" fill="black"/>
<path d="M10.4531 -2.66052e-07C12.0058 -1.19352e-07 13.269 1.20848 13.269 2.69386L13.269 17.3061C13.269 18.7915 12.0058 20 10.4531 20C8.9004 20 7.63716 18.7915 7.63716 17.3061L7.63716 2.69386C7.63716 1.20847 8.9004 -4.12752e-07 10.4531 -2.66052e-07ZM9.27046 17.3061C9.27046 17.93 9.801 18.4375 10.4531 18.4375C11.1052 18.4375 11.6357 17.93 11.6357 17.3061L11.6357 2.69386C11.6357 2.07 11.1052 1.5625 10.4531 1.5625C9.801 1.5625 9.27046 2.07 9.27046 2.69386L9.27046 17.3061Z" fill="black"/>
<path d="M2.81592 5.73773C4.36859 5.73773 5.63184 6.94621 5.63184 8.43161L5.63183 17.3061C5.63183 18.7915 4.36859 20 2.81587 20C1.2632 20 -4.90092e-05 18.7915 -4.88584e-05 17.3061L-4.79572e-05 8.4316C-4.78064e-05 6.94621 1.2632 5.73773 2.81592 5.73773ZM1.63327 17.3061C1.63327 17.9299 2.16381 18.4375 2.81591 18.4375C3.46798 18.4375 3.99852 17.9299 3.99852 17.3061L3.99852 8.4316C3.99852 7.80774 3.46798 7.30024 2.81587 7.30024C2.16381 7.30024 1.63327 7.80774 1.63327 8.4316L1.63327 17.3061Z" fill="black"/>
</svg>
