<svg width="9" height="8" viewBox="0 0 9 8" fill="none" xmlns="http://www.w3.org/2000/svg">
<path d="M5.14758 4L8.13867 1.00859C8.22095 0.926239 8.26635 0.816378 8.26648 0.699232C8.26648 0.582022 8.22108 0.472031 8.13867 0.389814L7.87656 0.127748C7.79415 0.0452062 7.6843 0 7.56703 0C7.44996 0 7.34011 0.0452062 7.2577 0.127748L4.26661 3.11897L1.27539 0.127748C1.19311 0.0452062 1.08319 0 0.965992 0C0.848918 0 0.739 0.0452062 0.656723 0.127748L0.394479 0.389814C0.223813 0.560492 0.223813 0.838103 0.394479 1.00859L3.38563 4L0.394479 6.99128C0.312138 7.07376 0.266805 7.18362 0.266805 7.30077C0.266805 7.41791 0.312138 7.52777 0.394479 7.61019L0.656658 7.87225C0.738935 7.95473 0.848918 8 0.965927 8C1.08313 8 1.19305 7.95473 1.27532 7.87225L4.26654 4.88097L7.25763 7.87225C7.34004 7.95473 7.44989 8 7.56697 8H7.5671C7.68424 8 7.79409 7.95473 7.8765 7.87225L8.13861 7.61019C8.22089 7.52784 8.26628 7.41791 8.26628 7.30077C8.26628 7.18362 8.22089 7.07376 8.13861 6.99135L5.14758 4Z" fill="#EDEDED"/>
</svg>
