<svg width="20" height="20" viewBox="0 0 20 20" fill="none" xmlns="http://www.w3.org/2000/svg">
<path d="M18.3432 1.84804C16.1682 -0.616247 12.6281 -0.616247 10.4524 1.84748L10 2.35909L9.54813 1.84772C7.37223 -0.61634 3.83258 -0.616061 1.65668 1.84772C0.58832 3.05763 0 4.66246 0 6.36612C0 8.07034 0.58832 9.67489 1.65684 10.8853L9.51695 19.7703C9.65215 19.9235 9.82621 19.9998 10 19.9998C10.1738 19.9998 10.3476 19.9232 10.483 19.77L18.3432 10.8853C19.4114 9.67517 20 8.07039 20 6.3664C20 4.66246 19.4114 3.05791 18.3432 1.84804ZM17.3761 9.67378L10 18.012L2.6241 9.67406C1.83695 8.78283 1.40352 7.60803 1.40352 6.3664C1.40352 5.12477 1.83695 3.94997 2.6241 3.05875C3.44516 2.1285 4.52352 1.66368 5.60211 1.66368C6.68094 1.66368 7.75977 2.12906 8.58082 3.0593L9.51648 4.11741C9.78734 4.42405 10.2124 4.42405 10.4833 4.11741L11.4192 3.05875C13.0615 1.19853 15.7336 1.19853 17.3759 3.05875C18.1628 3.95002 18.5965 5.12477 18.5965 6.3664C18.5965 7.60803 18.1628 8.78255 17.3761 9.67378Z" fill="black"/>
</svg>
