<svg width="15" height="15" viewBox="0 0 15 15" fill="none" xmlns="http://www.w3.org/2000/svg">
<path d="M7.50249 3.64844C5.37565 3.64844 3.65381 5.37216 3.65381 7.49712C3.65381 9.62396 5.37753 11.3458 7.50249 11.3458C9.62933 11.3458 11.3512 9.62208 11.3512 7.49712C11.3512 5.37028 9.62745 3.64844 7.50249 3.64844ZM7.50249 9.9952C6.12189 9.9952 5.00441 8.8771 5.00441 7.49712C5.00441 6.11714 6.12251 4.99904 7.50249 4.99904C8.88247 4.99904 10.0006 6.11714 10.0006 7.49712C10.0012 8.8771 8.88309 9.9952 7.50249 9.9952Z" fill="white"/>
<path d="M10.5925 0.0471158C9.21248 -0.017258 5.79442 -0.0141331 4.41319 0.0471158C3.19946 0.10399 2.12885 0.39711 1.26574 1.26022C-0.17673 2.70269 0.0076419 4.64641 0.0076419 7.49699C0.0076419 10.4144 -0.154855 12.3132 1.26574 13.7338C2.71384 15.1812 4.68568 14.9919 7.50251 14.9919C10.3925 14.9919 11.3899 14.9937 12.4118 14.5981C13.8011 14.0587 14.8499 12.8169 14.9524 10.5863C15.0174 9.2057 15.0136 5.78827 14.9524 4.40704C14.8286 1.77396 13.4155 0.177114 10.5925 0.0471158ZM12.7768 12.7794C11.8312 13.725 10.5193 13.6406 7.48439 13.6406C4.35944 13.6406 3.10634 13.6869 2.19198 12.77C1.13887 11.7219 1.32949 10.0388 1.32949 7.48699C1.32949 4.03392 0.975125 1.54709 4.44069 1.36959C5.23693 1.34147 5.4713 1.33209 7.47564 1.33209L7.50376 1.35084C10.8343 1.35084 13.4474 1.0021 13.6043 4.46704C13.6399 5.25765 13.648 5.49515 13.648 7.49636C13.6474 10.5851 13.7062 11.8457 12.7768 12.7794Z" fill="white"/>
<path d="M11.5037 4.39589C12.0004 4.39589 12.4031 3.99323 12.4031 3.49653C12.4031 2.99983 12.0004 2.59717 11.5037 2.59717C11.0069 2.59717 10.6042 2.99983 10.6042 3.49653C10.6042 3.99323 11.0069 4.39589 11.5037 4.39589Z" fill="white"/>
</svg>
