<svg width="8" height="12" viewBox="0 0 8 12" fill="none" xmlns="http://www.w3.org/2000/svg">
<path d="M4.00001 0C1.79445 0 0 1.79445 0 4.00001C0 4.66212 0.165539 5.3186 0.480234 5.90088L3.78127 11.8711C3.82521 11.9507 3.90895 12 4.00001 12C4.09106 12 4.1748 11.9507 4.21875 11.8711L7.521 5.89891C7.83448 5.3186 8.00002 4.66209 8.00002 3.99998C8.00002 1.79445 6.20557 0 4.00001 0ZM4.00001 6C2.89723 6 2.00002 5.10279 2.00002 4.00001C2.00002 2.89723 2.89723 2.00002 4.00001 2.00002C5.10279 2.00002 6 2.89723 6 4.00001C6 5.10279 5.10279 6 4.00001 6Z" fill="white"/>
</svg>
