<svg width="21" height="18" viewBox="0 0 21 18" fill="none" xmlns="http://www.w3.org/2000/svg">
<path d="M21 0.875C21 0.35 20.65 0 20.125 0H0.875C0.35 0 0 0.35 0 0.875V2.625C0 3.15 0.35 3.5 0.875 3.5H20.125C20.65 3.5 21 3.15 21 2.625V0.875Z" fill="white"/>
<path d="M21 7.875C21 7.35 20.65 7 20.125 7H0.875C0.35 7 0 7.35 0 7.875V9.625C0 10.15 0.35 10.5 0.875 10.5H20.125C20.65 10.5 21 10.15 21 9.625V7.875Z" fill="white"/>
<path d="M21 14.875C21 14.35 20.65 14 20.125 14H0.875C0.35 14 0 14.35 0 14.875V16.625C0 17.15 0.35 17.5 0.875 17.5H20.125C20.65 17.5 21 17.15 21 16.625V14.875Z" fill="white"/>
</svg>
