<svg width="28" height="28" viewBox="0 0 28 28" fill="none" xmlns="http://www.w3.org/2000/svg">
<path d="M26.9477 20.466V24.38C26.9492 24.7434 26.8747 25.1031 26.7292 25.436C26.5836 25.7689 26.3701 26.0678 26.1024 26.3134C25.8346 26.559 25.5185 26.7461 25.1743 26.8625C24.8301 26.9789 24.4654 27.0221 24.1035 26.9894C20.0887 26.5532 16.2323 25.1813 12.8441 22.984C9.69173 20.9809 7.01909 18.3083 5.01597 15.1559C2.81102 11.7523 1.43884 7.8771 1.01059 3.84433C0.977986 3.48355 1.02086 3.11992 1.13649 2.77661C1.25212 2.43331 1.43797 2.11783 1.6822 1.85029C1.92643 1.58274 2.22369 1.36897 2.55506 1.2226C2.88643 1.07623 3.24465 1.00047 3.60691 1.00013H7.52096C8.15413 0.993895 8.76796 1.21811 9.24805 1.63098C9.72813 2.04386 10.0417 2.61721 10.1303 3.24418C10.2955 4.49676 10.6019 5.72664 11.0436 6.91034C11.2191 7.37732 11.2571 7.88483 11.1531 8.37273C11.049 8.86064 10.8073 9.30849 10.4565 9.66322L8.79955 11.3202C10.6568 14.5865 13.3613 17.291 16.6276 19.1483L18.2846 17.4913C18.6393 17.1405 19.0872 16.8988 19.5751 16.7947C20.063 16.6907 20.5705 16.7287 21.0375 16.9042C22.2212 17.3459 23.451 17.6523 24.7036 17.8175C25.3374 17.9069 25.9162 18.2261 26.33 18.7144C26.7437 19.2028 26.9636 19.8261 26.9477 20.466Z" stroke="#E30E36" stroke-width="2" stroke-linecap="round" stroke-linejoin="round"/>
</svg>
