<svg width="23" height="23" viewBox="0 0 23 23" fill="none" xmlns="http://www.w3.org/2000/svg">
<path d="M10.1286 0C4.54386 0 0 4.54386 0 10.1286C0 15.7137 4.54386 20.2573 10.1286 20.2573C15.7137 20.2573 20.2573 15.7137 20.2573 10.1286C20.2573 4.54386 15.7137 0 10.1286 0ZM10.1286 18.3874C5.57481 18.3874 1.86991 14.6825 1.86991 10.1287C1.86991 5.57486 5.57481 1.86991 10.1286 1.86991C14.6825 1.86991 18.3874 5.57481 18.3874 10.1286C18.3874 14.6825 14.6825 18.3874 10.1286 18.3874Z" fill="#9A9A9A"/>
<path d="M22.726 21.4039L17.3656 16.0435C17.0004 15.6783 16.4089 15.6783 16.0436 16.0435C15.6783 16.4085 15.6783 17.0006 16.0436 17.3656L21.404 22.726C21.5866 22.9086 21.8257 22.9999 22.065 22.9999C22.304 22.9999 22.5434 22.9086 22.726 22.726C23.0913 22.361 23.0913 21.7689 22.726 21.4039Z" fill="#9A9A9A"/>
</svg>
