<svg width="24" height="24" viewBox="0 0 24 24" fill="none" xmlns="http://www.w3.org/2000/svg">
<path d="M16.2 14.8C18.5 13.4 20 10.9 20 8.00002C20 3.6 16.4 0 12 0C7.60003 0 3.99998 3.6 3.99998 8.00002C3.99998 10.9 5.49996 13.4 7.79995 14.8C3.79997 16.3 0.799969 19.8 0 24H2.00002C3 19.4 7.10004 16 12 16C16.9 16 21 19.4 22 24H24C23.2 19.7 20.2 16.2 16.2 14.8ZM6 8.00002C6 4.70004 8.70002 2.00002 12 2.00002C15.3 2.00002 18 4.70004 18 8.00002C18 11.3 15.3 14 12 14C8.70002 14 6 11.3 6 8.00002Z" fill="black"/>
</svg>
