<svg width="22" height="20" viewBox="0 0 22 20" fill="none" xmlns="http://www.w3.org/2000/svg">
<path d="M21.2498 0.845989V0.846366V4.60818C21.2498 4.65207 21.2398 4.68427 21.23 4.70455H0.951364C0.941663 4.68428 0.931641 4.65209 0.931641 4.60818V0.846366C0.931641 0.802458 0.941663 0.770268 0.951364 0.75H21.2303C21.2399 0.770211 21.2498 0.802272 21.2498 0.845989Z" stroke="#E0E0E0" stroke-width="1.5"/>
<path d="M21.2498 8.11869V8.11907V11.8809C21.2498 11.9248 21.2398 11.957 21.23 11.9773H0.951364C0.941663 11.957 0.931641 11.9248 0.931641 11.8809V8.11907C0.931641 8.07516 0.941663 8.04297 0.951364 8.02271H21.2303C21.2399 8.04292 21.2498 8.07498 21.2498 8.11869Z" stroke="#E0E0E0" stroke-width="1.5"/>
<path d="M21.2498 15.3914V15.3918V19.1536C21.2498 19.1975 21.2398 19.2297 21.23 19.25H0.951364C0.941663 19.2297 0.931641 19.1975 0.931641 19.1536V15.3918C0.931641 15.3479 0.941663 15.3157 0.951364 15.2954H21.2303C21.2399 15.3156 21.2498 15.3476 21.2498 15.3914Z" stroke="#E0E0E0" stroke-width="1.5"/>
</svg>
