<svg width="20" height="20" viewBox="0 0 20 20" fill="none" xmlns="http://www.w3.org/2000/svg">
<path d="M8.34091 1.41052V1.41061V7.6803C8.34091 7.93545 8.325 8.16232 8.30112 8.34091H0.789769C0.765893 8.16232 0.75 7.93545 0.75 7.6803V1.41061C0.75 1.15546 0.765893 0.928586 0.789769 0.75H8.30121C8.32507 0.928565 8.34094 1.1554 8.34091 1.41052Z" stroke="#E30E36" stroke-width="1.5"/>
<path d="M8.34091 12.3196V12.3197V18.5894C8.34091 18.8445 8.325 19.0714 8.30112 19.25H0.789769C0.765893 19.0714 0.75 18.8445 0.75 18.5894V12.3197C0.75 12.0645 0.765893 11.8377 0.789769 11.6591H8.30121C8.32507 11.8377 8.34094 12.0645 8.34091 12.3196Z" stroke="#E30E36" stroke-width="1.5"/>
<path d="M19.2501 12.3196V12.3197V18.5894C19.2501 18.8445 19.2342 19.0714 19.2103 19.25H11.6989C11.6751 19.0714 11.6592 18.8445 11.6592 18.5894V12.3197C11.6592 12.0645 11.6751 11.8377 11.6989 11.6591H19.2104C19.2343 11.8377 19.2501 12.0645 19.2501 12.3196Z" stroke="#E30E36" stroke-width="1.5"/>
<path d="M19.2501 1.41052V1.41061V7.6803C19.2501 7.93545 19.2342 8.16232 19.2103 8.34091H11.6989C11.6751 8.16232 11.6592 7.93545 11.6592 7.6803V1.41061C11.6592 1.15546 11.6751 0.928586 11.6989 0.75H19.2104C19.2343 0.928565 19.2501 1.1554 19.2501 1.41052Z" stroke="#E30E36" stroke-width="1.5"/>
</svg>
