<svg width="29" height="20" viewBox="0 0 29 20" fill="none" xmlns="http://www.w3.org/2000/svg">
<path d="M4.70455 0.846272V0.846366V4.60818C4.70455 4.64147 4.70405 4.67364 4.70315 4.70455H0.751394C0.75049 4.67364 0.75 4.64147 0.75 4.60818V0.846366C0.75 0.813071 0.75049 0.780904 0.751394 0.75H4.70316C4.70406 0.780875 4.70455 0.813011 4.70455 0.846272Z" stroke="#E0E0E0" stroke-width="1.5"/>
<path d="M4.70455 8.11898V8.11907V11.8809C4.70455 11.9142 4.70405 11.9463 4.70315 11.9773H0.751394C0.75049 11.9463 0.75 11.9142 0.75 11.8809V8.11907C0.75 8.08578 0.75049 8.05361 0.751394 8.02271H4.70316C4.70406 8.05358 4.70455 8.08572 4.70455 8.11898Z" stroke="#E0E0E0" stroke-width="1.5"/>
<path d="M4.70455 15.3917V15.3918V19.1536C4.70455 19.1869 4.70405 19.2191 4.70315 19.25H0.751394C0.75049 19.2191 0.75 19.1869 0.75 19.1536V15.3918C0.75 15.3585 0.75049 15.3263 0.751394 15.2954H4.70317C4.70406 15.3263 4.70455 15.3584 4.70455 15.3917Z" stroke="#E0E0E0" stroke-width="1.5"/>
<path d="M27.4318 0.846019V0.846366V4.60818C27.4318 4.6486 27.4254 4.6808 27.4179 4.70455H8.94562C8.93809 4.6808 8.93176 4.6486 8.93176 4.60818V0.846366C8.93176 0.805945 8.93809 0.773747 8.94562 0.75H27.418C27.4255 0.773681 27.4318 0.805762 27.4318 0.846019Z" stroke="#E0E0E0" stroke-width="1.5"/>
<path d="M27.4318 8.11872V8.11907V11.8809C27.4318 11.9213 27.4254 11.9535 27.4179 11.9773H8.94562C8.93809 11.9535 8.93176 11.9213 8.93176 11.8809V8.11907C8.93176 8.07865 8.93809 8.04645 8.94562 8.02271H27.418C27.4255 8.04639 27.4318 8.07847 27.4318 8.11872Z" stroke="#E0E0E0" stroke-width="1.5"/>
<path d="M27.4318 15.3914V15.3918V19.1536C27.4318 19.194 27.4254 19.2262 27.4179 19.25H8.94562C8.93809 19.2262 8.93176 19.194 8.93176 19.1536V15.3918C8.93176 15.3514 8.93809 15.3192 8.94562 15.2954H27.4181C27.4255 15.3191 27.4318 15.3512 27.4318 15.3914Z" stroke="#E0E0E0" stroke-width="1.5"/>
</svg>
